<mxfile host="app.diagrams.net" agent="Mozilla/5.0 (Windows NT 10.0; Win64; x64) AppleWebKit/537.36 (KHTML, like Gecko) Chrome/131.0.0.0 Safari/537.36" version="25.0.3">
  <diagram id="C5RBs43oDa-KdzZeNtuy" name="Page-1">
    <mxGraphModel dx="2145" dy="1834" grid="1" gridSize="10" guides="1" tooltips="1" connect="1" arrows="1" fold="1" page="1" pageScale="1" pageWidth="827" pageHeight="1169" math="0" shadow="0">
      <root>
        <mxCell id="WIyWlLk6GJQsqaUBKTNV-0" />
        <mxCell id="WIyWlLk6GJQsqaUBKTNV-1" parent="WIyWlLk6GJQsqaUBKTNV-0" />
        <mxCell id="KDLQE4XaWD7OK8qfp_su-111" style="edgeStyle=orthogonalEdgeStyle;rounded=0;orthogonalLoop=1;jettySize=auto;html=1;" parent="WIyWlLk6GJQsqaUBKTNV-1" source="KDLQE4XaWD7OK8qfp_su-1" target="KDLQE4XaWD7OK8qfp_su-89" edge="1">
          <mxGeometry relative="1" as="geometry" />
        </mxCell>
        <mxCell id="KDLQE4XaWD7OK8qfp_su-1" value="start" style="rounded=1;whiteSpace=wrap;html=1;fillColor=#e1d5e7;strokeColor=#9673a6;" parent="WIyWlLk6GJQsqaUBKTNV-1" vertex="1">
          <mxGeometry x="41" y="-120" width="150" height="20" as="geometry" />
        </mxCell>
        <mxCell id="KDLQE4XaWD7OK8qfp_su-8" style="edgeStyle=orthogonalEdgeStyle;rounded=0;orthogonalLoop=1;jettySize=auto;html=1;entryX=0;entryY=0.5;entryDx=0;entryDy=0;" parent="WIyWlLk6GJQsqaUBKTNV-1" source="KDLQE4XaWD7OK8qfp_su-6" target="KDLQE4XaWD7OK8qfp_su-10" edge="1">
          <mxGeometry relative="1" as="geometry">
            <mxPoint x="290" y="170" as="targetPoint" />
          </mxGeometry>
        </mxCell>
        <mxCell id="KDLQE4XaWD7OK8qfp_su-9" style="edgeStyle=orthogonalEdgeStyle;rounded=0;orthogonalLoop=1;jettySize=auto;html=1;" parent="WIyWlLk6GJQsqaUBKTNV-1" source="KDLQE4XaWD7OK8qfp_su-6" target="KDLQE4XaWD7OK8qfp_su-10" edge="1">
          <mxGeometry relative="1" as="geometry">
            <mxPoint x="-50" y="170" as="targetPoint" />
          </mxGeometry>
        </mxCell>
        <mxCell id="KDLQE4XaWD7OK8qfp_su-13" style="edgeStyle=orthogonalEdgeStyle;rounded=0;orthogonalLoop=1;jettySize=auto;html=1;entryX=1;entryY=0.5;entryDx=0;entryDy=0;" parent="WIyWlLk6GJQsqaUBKTNV-1" source="KDLQE4XaWD7OK8qfp_su-6" target="KDLQE4XaWD7OK8qfp_su-34" edge="1">
          <mxGeometry relative="1" as="geometry">
            <mxPoint x="20" y="170" as="targetPoint" />
          </mxGeometry>
        </mxCell>
        <mxCell id="KDLQE4XaWD7OK8qfp_su-15" style="edgeStyle=orthogonalEdgeStyle;rounded=0;orthogonalLoop=1;jettySize=auto;html=1;" parent="WIyWlLk6GJQsqaUBKTNV-1" source="KDLQE4XaWD7OK8qfp_su-6" target="KDLQE4XaWD7OK8qfp_su-18" edge="1">
          <mxGeometry relative="1" as="geometry">
            <mxPoint x="120" y="250" as="targetPoint" />
            <Array as="points">
              <mxPoint x="114" y="290" />
              <mxPoint x="114" y="290" />
            </Array>
          </mxGeometry>
        </mxCell>
        <mxCell id="KDLQE4XaWD7OK8qfp_su-6" value="raad getal" style="shape=parallelogram;perimeter=parallelogramPerimeter;whiteSpace=wrap;html=1;fixedSize=1;fillColor=#fff2cc;strokeColor=#d6b656;" parent="WIyWlLk6GJQsqaUBKTNV-1" vertex="1">
          <mxGeometry x="54" y="140" width="120" height="60" as="geometry" />
        </mxCell>
        <mxCell id="KDLQE4XaWD7OK8qfp_su-24" style="edgeStyle=orthogonalEdgeStyle;rounded=0;orthogonalLoop=1;jettySize=auto;html=1;entryX=0.5;entryY=0;entryDx=0;entryDy=0;" parent="WIyWlLk6GJQsqaUBKTNV-1" source="KDLQE4XaWD7OK8qfp_su-10" target="KDLQE4XaWD7OK8qfp_su-68" edge="1">
          <mxGeometry relative="1" as="geometry">
            <mxPoint x="280" y="270" as="targetPoint" />
          </mxGeometry>
        </mxCell>
        <mxCell id="-vnfHx7Rx2fp_vV4L5cH-29" style="edgeStyle=orthogonalEdgeStyle;rounded=0;orthogonalLoop=1;jettySize=auto;html=1;" edge="1" parent="WIyWlLk6GJQsqaUBKTNV-1" source="KDLQE4XaWD7OK8qfp_su-10" target="-vnfHx7Rx2fp_vV4L5cH-27">
          <mxGeometry relative="1" as="geometry" />
        </mxCell>
        <mxCell id="KDLQE4XaWD7OK8qfp_su-10" value="getal&amp;gt;" style="rhombus;whiteSpace=wrap;html=1;fillColor=#f5f5f5;fontColor=#333333;strokeColor=#666666;" parent="WIyWlLk6GJQsqaUBKTNV-1" vertex="1">
          <mxGeometry x="191" y="130" width="80" height="80" as="geometry" />
        </mxCell>
        <mxCell id="KDLQE4XaWD7OK8qfp_su-28" style="edgeStyle=orthogonalEdgeStyle;rounded=0;orthogonalLoop=1;jettySize=auto;html=1;entryX=0.5;entryY=0;entryDx=0;entryDy=0;" parent="WIyWlLk6GJQsqaUBKTNV-1" source="KDLQE4XaWD7OK8qfp_su-14" target="KDLQE4XaWD7OK8qfp_su-27" edge="1">
          <mxGeometry relative="1" as="geometry" />
        </mxCell>
        <mxCell id="KDLQE4XaWD7OK8qfp_su-31" style="edgeStyle=orthogonalEdgeStyle;rounded=0;orthogonalLoop=1;jettySize=auto;html=1;entryX=1;entryY=0.5;entryDx=0;entryDy=0;" parent="WIyWlLk6GJQsqaUBKTNV-1" source="KDLQE4XaWD7OK8qfp_su-14" target="KDLQE4XaWD7OK8qfp_su-30" edge="1">
          <mxGeometry relative="1" as="geometry" />
        </mxCell>
        <mxCell id="KDLQE4XaWD7OK8qfp_su-14" value="verschil&amp;lt;50" style="rhombus;whiteSpace=wrap;html=1;fillColor=#f5f5f5;fontColor=#333333;strokeColor=#666666;" parent="WIyWlLk6GJQsqaUBKTNV-1" vertex="1">
          <mxGeometry x="-142" y="130" width="80" height="80" as="geometry" />
        </mxCell>
        <mxCell id="KDLQE4XaWD7OK8qfp_su-49" style="edgeStyle=orthogonalEdgeStyle;rounded=0;orthogonalLoop=1;jettySize=auto;html=1;exitX=0;exitY=0.5;exitDx=0;exitDy=0;entryX=1;entryY=0.5;entryDx=0;entryDy=0;" parent="WIyWlLk6GJQsqaUBKTNV-1" source="KDLQE4XaWD7OK8qfp_su-73" target="KDLQE4XaWD7OK8qfp_su-80" edge="1">
          <mxGeometry relative="1" as="geometry">
            <mxPoint x="53.99999999999977" y="652.8000000000002" as="sourcePoint" />
            <mxPoint x="30" y="653" as="targetPoint" />
          </mxGeometry>
        </mxCell>
        <mxCell id="KDLQE4XaWD7OK8qfp_su-79" value="True" style="edgeLabel;html=1;align=center;verticalAlign=middle;resizable=0;points=[];" parent="KDLQE4XaWD7OK8qfp_su-49" vertex="1" connectable="0">
          <mxGeometry x="-0.0943" y="-2" relative="1" as="geometry">
            <mxPoint as="offset" />
          </mxGeometry>
        </mxCell>
        <mxCell id="KDLQE4XaWD7OK8qfp_su-78" style="edgeStyle=orthogonalEdgeStyle;rounded=0;orthogonalLoop=1;jettySize=auto;html=1;entryX=0.5;entryY=0;entryDx=0;entryDy=0;" parent="WIyWlLk6GJQsqaUBKTNV-1" source="KDLQE4XaWD7OK8qfp_su-18" target="KDLQE4XaWD7OK8qfp_su-73" edge="1">
          <mxGeometry relative="1" as="geometry">
            <mxPoint x="114" y="530" as="targetPoint" />
          </mxGeometry>
        </mxCell>
        <mxCell id="KDLQE4XaWD7OK8qfp_su-18" value="=getal" style="rhombus;whiteSpace=wrap;html=1;fillColor=#f5f5f5;fontColor=#333333;strokeColor=#666666;" parent="WIyWlLk6GJQsqaUBKTNV-1" vertex="1">
          <mxGeometry x="74" y="270" width="80" height="80" as="geometry" />
        </mxCell>
        <mxCell id="KDLQE4XaWD7OK8qfp_su-45" style="edgeStyle=orthogonalEdgeStyle;rounded=0;orthogonalLoop=1;jettySize=auto;html=1;" parent="WIyWlLk6GJQsqaUBKTNV-1" source="KDLQE4XaWD7OK8qfp_su-27" target="KDLQE4XaWD7OK8qfp_su-39" edge="1">
          <mxGeometry relative="1" as="geometry">
            <mxPoint x="-350" y="-30" as="targetPoint" />
            <Array as="points">
              <mxPoint x="-102" y="350" />
              <mxPoint x="-320" y="350" />
              <mxPoint x="-320" y="80" />
            </Array>
          </mxGeometry>
        </mxCell>
        <mxCell id="KDLQE4XaWD7OK8qfp_su-27" value="Je bent warm" style="rounded=0;whiteSpace=wrap;html=1;fillColor=#dae8fc;strokeColor=#6c8ebf;" parent="WIyWlLk6GJQsqaUBKTNV-1" vertex="1">
          <mxGeometry x="-144" y="290" width="84" height="40" as="geometry" />
        </mxCell>
        <mxCell id="KDLQE4XaWD7OK8qfp_su-33" style="edgeStyle=orthogonalEdgeStyle;rounded=0;orthogonalLoop=1;jettySize=auto;html=1;" parent="WIyWlLk6GJQsqaUBKTNV-1" source="KDLQE4XaWD7OK8qfp_su-30" target="KDLQE4XaWD7OK8qfp_su-32" edge="1">
          <mxGeometry relative="1" as="geometry" />
        </mxCell>
        <mxCell id="KDLQE4XaWD7OK8qfp_su-30" value="verschil&amp;lt;20" style="rhombus;whiteSpace=wrap;html=1;fillColor=#f5f5f5;fontColor=#333333;strokeColor=#666666;" parent="WIyWlLk6GJQsqaUBKTNV-1" vertex="1">
          <mxGeometry x="-250" y="130" width="80" height="80" as="geometry" />
        </mxCell>
        <mxCell id="KDLQE4XaWD7OK8qfp_su-32" value="Je hebt heel warm" style="rounded=0;whiteSpace=wrap;html=1;fillColor=#dae8fc;strokeColor=#6c8ebf;" parent="WIyWlLk6GJQsqaUBKTNV-1" vertex="1">
          <mxGeometry x="-262" y="290" width="104" height="40" as="geometry" />
        </mxCell>
        <mxCell id="KDLQE4XaWD7OK8qfp_su-36" style="edgeStyle=orthogonalEdgeStyle;rounded=0;orthogonalLoop=1;jettySize=auto;html=1;entryX=0.5;entryY=0;entryDx=0;entryDy=0;" parent="WIyWlLk6GJQsqaUBKTNV-1" source="KDLQE4XaWD7OK8qfp_su-34" target="KDLQE4XaWD7OK8qfp_su-35" edge="1">
          <mxGeometry relative="1" as="geometry" />
        </mxCell>
        <mxCell id="KDLQE4XaWD7OK8qfp_su-38" style="edgeStyle=orthogonalEdgeStyle;rounded=0;orthogonalLoop=1;jettySize=auto;html=1;entryX=1;entryY=0.5;entryDx=0;entryDy=0;" parent="WIyWlLk6GJQsqaUBKTNV-1" source="KDLQE4XaWD7OK8qfp_su-34" target="KDLQE4XaWD7OK8qfp_su-14" edge="1">
          <mxGeometry relative="1" as="geometry">
            <mxPoint x="-80" y="170" as="targetPoint" />
          </mxGeometry>
        </mxCell>
        <mxCell id="KDLQE4XaWD7OK8qfp_su-34" value="getal&amp;lt;" style="rhombus;whiteSpace=wrap;html=1;fillColor=#f5f5f5;fontColor=#333333;strokeColor=#666666;" parent="WIyWlLk6GJQsqaUBKTNV-1" vertex="1">
          <mxGeometry x="-40" y="130" width="79" height="80" as="geometry" />
        </mxCell>
        <mxCell id="KDLQE4XaWD7OK8qfp_su-35" value="hoger" style="rounded=0;whiteSpace=wrap;html=1;fillColor=#dae8fc;strokeColor=#6c8ebf;" parent="WIyWlLk6GJQsqaUBKTNV-1" vertex="1">
          <mxGeometry x="-43" y="290" width="84" height="40" as="geometry" />
        </mxCell>
        <mxCell id="KDLQE4XaWD7OK8qfp_su-40" style="edgeStyle=orthogonalEdgeStyle;rounded=0;orthogonalLoop=1;jettySize=auto;html=1;entryX=0.5;entryY=0;entryDx=0;entryDy=0;" parent="WIyWlLk6GJQsqaUBKTNV-1" source="KDLQE4XaWD7OK8qfp_su-39" target="KDLQE4XaWD7OK8qfp_su-6" edge="1">
          <mxGeometry relative="1" as="geometry" />
        </mxCell>
        <mxCell id="KDLQE4XaWD7OK8qfp_su-39" value="&lt;div&gt;te raden&lt;/div&gt;&lt;div&gt;&amp;nbsp;x 10&lt;/div&gt;" style="ellipse;whiteSpace=wrap;html=1;aspect=fixed;fillColor=#d5e8d4;strokeColor=#82b366;" parent="WIyWlLk6GJQsqaUBKTNV-1" vertex="1">
          <mxGeometry x="78" y="30" width="76" height="76" as="geometry" />
        </mxCell>
        <mxCell id="KDLQE4XaWD7OK8qfp_su-41" style="edgeStyle=orthogonalEdgeStyle;rounded=0;orthogonalLoop=1;jettySize=auto;html=1;entryX=0;entryY=1;entryDx=0;entryDy=0;" parent="WIyWlLk6GJQsqaUBKTNV-1" source="KDLQE4XaWD7OK8qfp_su-32" target="KDLQE4XaWD7OK8qfp_su-39" edge="1">
          <mxGeometry relative="1" as="geometry">
            <mxPoint x="-20" y="80" as="targetPoint" />
            <Array as="points">
              <mxPoint x="-300" y="310" />
              <mxPoint x="-300" y="95" />
            </Array>
          </mxGeometry>
        </mxCell>
        <mxCell id="KDLQE4XaWD7OK8qfp_su-51" style="edgeStyle=orthogonalEdgeStyle;rounded=0;orthogonalLoop=1;jettySize=auto;html=1;entryX=0.5;entryY=0;entryDx=0;entryDy=0;" parent="WIyWlLk6GJQsqaUBKTNV-1" source="KDLQE4XaWD7OK8qfp_su-46" target="KDLQE4XaWD7OK8qfp_su-53" edge="1">
          <mxGeometry relative="1" as="geometry">
            <mxPoint x="-40" y="790" as="targetPoint" />
          </mxGeometry>
        </mxCell>
        <mxCell id="KDLQE4XaWD7OK8qfp_su-52" value="False" style="edgeLabel;html=1;align=center;verticalAlign=middle;resizable=0;points=[];rotation=90;" parent="KDLQE4XaWD7OK8qfp_su-51" vertex="1" connectable="0">
          <mxGeometry x="0.1071" y="2" relative="1" as="geometry">
            <mxPoint x="8" y="4" as="offset" />
          </mxGeometry>
        </mxCell>
        <mxCell id="KDLQE4XaWD7OK8qfp_su-55" style="edgeStyle=orthogonalEdgeStyle;rounded=0;orthogonalLoop=1;jettySize=auto;html=1;entryX=1;entryY=0.5;entryDx=0;entryDy=0;" parent="WIyWlLk6GJQsqaUBKTNV-1" source="KDLQE4XaWD7OK8qfp_su-46" target="KDLQE4XaWD7OK8qfp_su-57" edge="1">
          <mxGeometry relative="1" as="geometry">
            <mxPoint x="-130" y="652.81" as="targetPoint" />
          </mxGeometry>
        </mxCell>
        <mxCell id="KDLQE4XaWD7OK8qfp_su-56" value="True" style="edgeLabel;html=1;align=center;verticalAlign=middle;resizable=0;points=[];" parent="KDLQE4XaWD7OK8qfp_su-55" vertex="1" connectable="0">
          <mxGeometry x="-0.0642" y="1" relative="1" as="geometry">
            <mxPoint x="1" y="-1" as="offset" />
          </mxGeometry>
        </mxCell>
        <mxCell id="KDLQE4XaWD7OK8qfp_su-46" value="volgende ronde?" style="rhombus;whiteSpace=wrap;html=1;fillColor=#f5f5f5;fontColor=#333333;strokeColor=#666666;" parent="WIyWlLk6GJQsqaUBKTNV-1" vertex="1">
          <mxGeometry x="-170" y="520" width="80" height="80" as="geometry" />
        </mxCell>
        <mxCell id="KDLQE4XaWD7OK8qfp_su-53" value="stop" style="rounded=1;whiteSpace=wrap;html=1;fillColor=#e1d5e7;strokeColor=#9673a6;" parent="WIyWlLk6GJQsqaUBKTNV-1" vertex="1">
          <mxGeometry x="-210" y="760" width="150" height="20" as="geometry" />
        </mxCell>
        <mxCell id="KDLQE4XaWD7OK8qfp_su-114" style="edgeStyle=orthogonalEdgeStyle;rounded=0;orthogonalLoop=1;jettySize=auto;html=1;entryX=0.5;entryY=1;entryDx=0;entryDy=0;" parent="WIyWlLk6GJQsqaUBKTNV-1" source="KDLQE4XaWD7OK8qfp_su-57" target="KDLQE4XaWD7OK8qfp_su-113" edge="1">
          <mxGeometry relative="1" as="geometry" />
        </mxCell>
        <mxCell id="KDLQE4XaWD7OK8qfp_su-57" value="ronde X begind" style="rounded=0;whiteSpace=wrap;html=1;fillColor=#dae8fc;strokeColor=#6c8ebf;" parent="WIyWlLk6GJQsqaUBKTNV-1" vertex="1">
          <mxGeometry x="-320" y="542.81" width="120" height="37.19" as="geometry" />
        </mxCell>
        <mxCell id="KDLQE4XaWD7OK8qfp_su-59" style="edgeStyle=orthogonalEdgeStyle;rounded=0;orthogonalLoop=1;jettySize=auto;html=1;entryX=0.067;entryY=0.378;entryDx=0;entryDy=0;entryPerimeter=0;" parent="WIyWlLk6GJQsqaUBKTNV-1" source="KDLQE4XaWD7OK8qfp_su-35" target="KDLQE4XaWD7OK8qfp_su-39" edge="1">
          <mxGeometry relative="1" as="geometry">
            <mxPoint x="30" y="60" as="targetPoint" />
            <Array as="points">
              <mxPoint x="-1" y="370" />
              <mxPoint x="-340" y="370" />
              <mxPoint x="-340" y="61" />
              <mxPoint x="81" y="61" />
            </Array>
          </mxGeometry>
        </mxCell>
        <mxCell id="KDLQE4XaWD7OK8qfp_su-69" style="edgeStyle=orthogonalEdgeStyle;rounded=0;orthogonalLoop=1;jettySize=auto;html=1;entryX=0.982;entryY=0.255;entryDx=0;entryDy=0;entryPerimeter=0;" parent="WIyWlLk6GJQsqaUBKTNV-1" source="KDLQE4XaWD7OK8qfp_su-68" target="KDLQE4XaWD7OK8qfp_su-39" edge="1">
          <mxGeometry relative="1" as="geometry">
            <Array as="points">
              <mxPoint x="231" y="410" />
              <mxPoint x="610" y="410" />
              <mxPoint x="610" y="50" />
            </Array>
          </mxGeometry>
        </mxCell>
        <mxCell id="KDLQE4XaWD7OK8qfp_su-68" value="lager" style="rounded=0;whiteSpace=wrap;html=1;fillColor=#dae8fc;strokeColor=#6c8ebf;" parent="WIyWlLk6GJQsqaUBKTNV-1" vertex="1">
          <mxGeometry x="189" y="290" width="84" height="40" as="geometry" />
        </mxCell>
        <mxCell id="KDLQE4XaWD7OK8qfp_su-82" style="edgeStyle=orthogonalEdgeStyle;rounded=0;orthogonalLoop=1;jettySize=auto;html=1;entryX=0;entryY=0.5;entryDx=0;entryDy=0;" parent="WIyWlLk6GJQsqaUBKTNV-1" source="KDLQE4XaWD7OK8qfp_su-73" target="KDLQE4XaWD7OK8qfp_su-84" edge="1">
          <mxGeometry relative="1" as="geometry">
            <mxPoint x="190" y="652.8000000000002" as="targetPoint" />
          </mxGeometry>
        </mxCell>
        <mxCell id="KDLQE4XaWD7OK8qfp_su-85" value="False" style="edgeLabel;html=1;align=center;verticalAlign=middle;resizable=0;points=[];" parent="KDLQE4XaWD7OK8qfp_su-82" vertex="1" connectable="0">
          <mxGeometry x="-0.454" relative="1" as="geometry">
            <mxPoint x="8" as="offset" />
          </mxGeometry>
        </mxCell>
        <mxCell id="KDLQE4XaWD7OK8qfp_su-73" value="geraden&lt;div&gt;in 10x&lt;/div&gt;" style="rhombus;whiteSpace=wrap;html=1;fillColor=#f5f5f5;fontColor=#333333;strokeColor=#666666;" parent="WIyWlLk6GJQsqaUBKTNV-1" vertex="1">
          <mxGeometry x="74" y="520" width="80" height="80" as="geometry" />
        </mxCell>
        <mxCell id="KDLQE4XaWD7OK8qfp_su-81" style="edgeStyle=orthogonalEdgeStyle;rounded=0;orthogonalLoop=1;jettySize=auto;html=1;entryX=1;entryY=0.5;entryDx=0;entryDy=0;" parent="WIyWlLk6GJQsqaUBKTNV-1" source="KDLQE4XaWD7OK8qfp_su-80" target="KDLQE4XaWD7OK8qfp_su-46" edge="1">
          <mxGeometry relative="1" as="geometry" />
        </mxCell>
        <mxCell id="KDLQE4XaWD7OK8qfp_su-128" style="edgeStyle=orthogonalEdgeStyle;rounded=0;orthogonalLoop=1;jettySize=auto;html=1;entryX=0;entryY=0.5;entryDx=0;entryDy=0;" parent="WIyWlLk6GJQsqaUBKTNV-1" source="KDLQE4XaWD7OK8qfp_su-80" target="KDLQE4XaWD7OK8qfp_su-122" edge="1">
          <mxGeometry relative="1" as="geometry">
            <Array as="points">
              <mxPoint x="-10" y="770" />
            </Array>
          </mxGeometry>
        </mxCell>
        <mxCell id="KDLQE4XaWD7OK8qfp_su-80" value="score+1" style="rounded=0;whiteSpace=wrap;html=1;fillColor=#dae8fc;strokeColor=#6c8ebf;" parent="WIyWlLk6GJQsqaUBKTNV-1" vertex="1">
          <mxGeometry x="-43" y="540.0000000000001" width="84" height="40" as="geometry" />
        </mxCell>
        <mxCell id="KDLQE4XaWD7OK8qfp_su-127" style="edgeStyle=orthogonalEdgeStyle;rounded=0;orthogonalLoop=1;jettySize=auto;html=1;entryX=1;entryY=0.75;entryDx=0;entryDy=0;" parent="WIyWlLk6GJQsqaUBKTNV-1" source="KDLQE4XaWD7OK8qfp_su-84" target="KDLQE4XaWD7OK8qfp_su-122" edge="1">
          <mxGeometry relative="1" as="geometry">
            <Array as="points">
              <mxPoint x="240" y="780" />
            </Array>
          </mxGeometry>
        </mxCell>
        <mxCell id="KDLQE4XaWD7OK8qfp_su-84" value="score+0" style="rounded=0;whiteSpace=wrap;html=1;fillColor=#dae8fc;strokeColor=#6c8ebf;" parent="WIyWlLk6GJQsqaUBKTNV-1" vertex="1">
          <mxGeometry x="210" y="540.0000000000001" width="84" height="40" as="geometry" />
        </mxCell>
        <mxCell id="KDLQE4XaWD7OK8qfp_su-90" style="edgeStyle=orthogonalEdgeStyle;rounded=0;orthogonalLoop=1;jettySize=auto;html=1;entryX=0.5;entryY=0;entryDx=0;entryDy=0;" parent="WIyWlLk6GJQsqaUBKTNV-1" source="KDLQE4XaWD7OK8qfp_su-89" target="KDLQE4XaWD7OK8qfp_su-39" edge="1">
          <mxGeometry relative="1" as="geometry" />
        </mxCell>
        <mxCell id="KDLQE4XaWD7OK8qfp_su-89" value="ronde x 20" style="ellipse;whiteSpace=wrap;html=1;aspect=fixed;fillColor=#d5e8d4;strokeColor=#82b366;" parent="WIyWlLk6GJQsqaUBKTNV-1" vertex="1">
          <mxGeometry x="78" y="-70" width="76" height="76" as="geometry" />
        </mxCell>
        <mxCell id="KDLQE4XaWD7OK8qfp_su-115" style="edgeStyle=orthogonalEdgeStyle;rounded=0;orthogonalLoop=1;jettySize=auto;html=1;entryX=0;entryY=0.5;entryDx=0;entryDy=0;exitX=0;exitY=0.5;exitDx=0;exitDy=0;" parent="WIyWlLk6GJQsqaUBKTNV-1" source="KDLQE4XaWD7OK8qfp_su-113" target="KDLQE4XaWD7OK8qfp_su-130" edge="1">
          <mxGeometry relative="1" as="geometry">
            <mxPoint x="-270" y="835" as="targetPoint" />
            <Array as="points">
              <mxPoint x="-440" y="770" />
            </Array>
          </mxGeometry>
        </mxCell>
        <mxCell id="KDLQE4XaWD7OK8qfp_su-117" value="True" style="edgeLabel;html=1;align=center;verticalAlign=middle;resizable=0;points=[];" parent="KDLQE4XaWD7OK8qfp_su-115" vertex="1" connectable="0">
          <mxGeometry x="0.2772" y="4" relative="1" as="geometry">
            <mxPoint x="-1" y="-1" as="offset" />
          </mxGeometry>
        </mxCell>
        <mxCell id="KDLQE4XaWD7OK8qfp_su-118" style="edgeStyle=orthogonalEdgeStyle;rounded=0;orthogonalLoop=1;jettySize=auto;html=1;entryX=0;entryY=0.5;entryDx=0;entryDy=0;" parent="WIyWlLk6GJQsqaUBKTNV-1" source="KDLQE4XaWD7OK8qfp_su-113" target="KDLQE4XaWD7OK8qfp_su-89" edge="1">
          <mxGeometry relative="1" as="geometry">
            <Array as="points">
              <mxPoint x="-400" y="-32" />
            </Array>
          </mxGeometry>
        </mxCell>
        <mxCell id="KDLQE4XaWD7OK8qfp_su-119" value="False" style="edgeLabel;html=1;align=center;verticalAlign=middle;resizable=0;points=[];rotation=90;" parent="KDLQE4XaWD7OK8qfp_su-118" vertex="1" connectable="0">
          <mxGeometry x="-0.7246" y="4" relative="1" as="geometry">
            <mxPoint as="offset" />
          </mxGeometry>
        </mxCell>
        <mxCell id="KDLQE4XaWD7OK8qfp_su-113" value="ronde==20" style="rhombus;whiteSpace=wrap;html=1;fillColor=#f5f5f5;fontColor=#333333;strokeColor=#666666;" parent="WIyWlLk6GJQsqaUBKTNV-1" vertex="1">
          <mxGeometry x="-440" y="450" width="80" height="80" as="geometry" />
        </mxCell>
        <mxCell id="KDLQE4XaWD7OK8qfp_su-129" style="edgeStyle=orthogonalEdgeStyle;rounded=0;orthogonalLoop=1;jettySize=auto;html=1;entryX=1;entryY=0;entryDx=0;entryDy=0;" parent="WIyWlLk6GJQsqaUBKTNV-1" source="KDLQE4XaWD7OK8qfp_su-122" target="KDLQE4XaWD7OK8qfp_su-39" edge="1">
          <mxGeometry relative="1" as="geometry">
            <mxPoint x="150" y="41" as="targetPoint" />
            <Array as="points">
              <mxPoint x="120" y="820" />
              <mxPoint x="620" y="820" />
              <mxPoint x="620" y="41" />
            </Array>
          </mxGeometry>
        </mxCell>
        <mxCell id="KDLQE4XaWD7OK8qfp_su-122" value="schow score" style="rounded=0;whiteSpace=wrap;html=1;fillColor=#dae8fc;strokeColor=#6c8ebf;" parent="WIyWlLk6GJQsqaUBKTNV-1" vertex="1">
          <mxGeometry x="78" y="750.0000000000001" width="84" height="40" as="geometry" />
        </mxCell>
        <mxCell id="KDLQE4XaWD7OK8qfp_su-132" style="edgeStyle=orthogonalEdgeStyle;rounded=0;orthogonalLoop=1;jettySize=auto;html=1;entryX=0;entryY=0.5;entryDx=0;entryDy=0;" parent="WIyWlLk6GJQsqaUBKTNV-1" source="KDLQE4XaWD7OK8qfp_su-130" target="KDLQE4XaWD7OK8qfp_su-53" edge="1">
          <mxGeometry relative="1" as="geometry" />
        </mxCell>
        <mxCell id="KDLQE4XaWD7OK8qfp_su-130" value="schow score" style="rounded=0;whiteSpace=wrap;html=1;fillColor=#dae8fc;strokeColor=#6c8ebf;" parent="WIyWlLk6GJQsqaUBKTNV-1" vertex="1">
          <mxGeometry x="-360" y="750.0000000000001" width="84" height="40" as="geometry" />
        </mxCell>
        <mxCell id="-vnfHx7Rx2fp_vV4L5cH-25" style="edgeStyle=orthogonalEdgeStyle;rounded=0;orthogonalLoop=1;jettySize=auto;html=1;entryX=0.5;entryY=0;entryDx=0;entryDy=0;" edge="1" parent="WIyWlLk6GJQsqaUBKTNV-1" source="-vnfHx7Rx2fp_vV4L5cH-27" target="-vnfHx7Rx2fp_vV4L5cH-30">
          <mxGeometry relative="1" as="geometry">
            <mxPoint x="341" y="290" as="targetPoint" />
          </mxGeometry>
        </mxCell>
        <mxCell id="-vnfHx7Rx2fp_vV4L5cH-36" style="edgeStyle=orthogonalEdgeStyle;rounded=0;orthogonalLoop=1;jettySize=auto;html=1;" edge="1" parent="WIyWlLk6GJQsqaUBKTNV-1" source="-vnfHx7Rx2fp_vV4L5cH-27" target="-vnfHx7Rx2fp_vV4L5cH-33">
          <mxGeometry relative="1" as="geometry" />
        </mxCell>
        <mxCell id="-vnfHx7Rx2fp_vV4L5cH-27" value="verschil&amp;lt;50" style="rhombus;whiteSpace=wrap;html=1;fillColor=#f5f5f5;fontColor=#333333;strokeColor=#666666;" vertex="1" parent="WIyWlLk6GJQsqaUBKTNV-1">
          <mxGeometry x="301" y="130" width="80" height="80" as="geometry" />
        </mxCell>
        <mxCell id="-vnfHx7Rx2fp_vV4L5cH-32" style="edgeStyle=orthogonalEdgeStyle;rounded=0;orthogonalLoop=1;jettySize=auto;html=1;entryX=1;entryY=0.5;entryDx=0;entryDy=0;exitX=0.5;exitY=1;exitDx=0;exitDy=0;" edge="1" parent="WIyWlLk6GJQsqaUBKTNV-1" source="-vnfHx7Rx2fp_vV4L5cH-30" target="KDLQE4XaWD7OK8qfp_su-39">
          <mxGeometry relative="1" as="geometry">
            <mxPoint x="190.00000000000023" y="120" as="targetPoint" />
            <Array as="points">
              <mxPoint x="341" y="350" />
              <mxPoint x="570" y="350" />
              <mxPoint x="570" y="68" />
            </Array>
          </mxGeometry>
        </mxCell>
        <mxCell id="-vnfHx7Rx2fp_vV4L5cH-30" value="Je bent warm" style="rounded=0;whiteSpace=wrap;html=1;fillColor=#dae8fc;strokeColor=#6c8ebf;" vertex="1" parent="WIyWlLk6GJQsqaUBKTNV-1">
          <mxGeometry x="299" y="290" width="84" height="40" as="geometry" />
        </mxCell>
        <mxCell id="-vnfHx7Rx2fp_vV4L5cH-33" value="verschil&amp;lt;20" style="rhombus;whiteSpace=wrap;html=1;fillColor=#f5f5f5;fontColor=#333333;strokeColor=#666666;" vertex="1" parent="WIyWlLk6GJQsqaUBKTNV-1">
          <mxGeometry x="413.5" y="130" width="80" height="80" as="geometry" />
        </mxCell>
        <mxCell id="-vnfHx7Rx2fp_vV4L5cH-37" value="Je hebt heel warm" style="rounded=0;whiteSpace=wrap;html=1;fillColor=#dae8fc;strokeColor=#6c8ebf;" vertex="1" parent="WIyWlLk6GJQsqaUBKTNV-1">
          <mxGeometry x="414" y="290" width="104" height="40" as="geometry" />
        </mxCell>
        <mxCell id="-vnfHx7Rx2fp_vV4L5cH-38" style="edgeStyle=orthogonalEdgeStyle;rounded=0;orthogonalLoop=1;jettySize=auto;html=1;entryX=0.377;entryY=0.125;entryDx=0;entryDy=0;entryPerimeter=0;" edge="1" parent="WIyWlLk6GJQsqaUBKTNV-1" source="-vnfHx7Rx2fp_vV4L5cH-33" target="-vnfHx7Rx2fp_vV4L5cH-37">
          <mxGeometry relative="1" as="geometry" />
        </mxCell>
        <mxCell id="-vnfHx7Rx2fp_vV4L5cH-39" style="edgeStyle=orthogonalEdgeStyle;rounded=0;orthogonalLoop=1;jettySize=auto;html=1;entryX=1.003;entryY=0.727;entryDx=0;entryDy=0;entryPerimeter=0;" edge="1" parent="WIyWlLk6GJQsqaUBKTNV-1" source="-vnfHx7Rx2fp_vV4L5cH-37" target="KDLQE4XaWD7OK8qfp_su-39">
          <mxGeometry relative="1" as="geometry">
            <Array as="points">
              <mxPoint x="540" y="310" />
              <mxPoint x="540" y="85" />
            </Array>
          </mxGeometry>
        </mxCell>
      </root>
    </mxGraphModel>
  </diagram>
</mxfile>
